<?xml version="1.0" standalone="no"?>
<!DOCTYPE svg PUBLIC "-//W3C//DTD SVG 20010904//EN"
 "http://www.w3.org/TR/2001/REC-SVG-20010904/DTD/svg10.dtd">
<svg version="1.0" xmlns="http://www.w3.org/2000/svg"
 width="940.000000pt" height="494.000000pt" viewBox="0 0 940.000000 494.000000"
 preserveAspectRatio="xMidYMid meet">

<g transform="translate(0.000000,494.000000) scale(0.100000,-0.100000)"
fill="#000000" stroke="none">
<path d="M6402 3473 c-12 -2 -20 -9 -17 -14 3 -5 0 -7 -7 -4 -16 5 -52 -41
-43 -55 10 -17 25 -11 18 7 -5 11 -3 14 6 8 8 -4 17 -2 22 6 7 11 9 11 9 -3 0
-9 -7 -21 -16 -26 -10 -6 -14 -14 -9 -22 6 -9 9 -9 16 1 7 11 9 10 9 -3 0 -24
-12 -23 -41 3 l-24 21 -3 -24 c-2 -13 2 -37 8 -52 8 -22 15 -27 33 -23 21 6
21 6 3 -8 -11 -8 -26 -15 -33 -15 -27 0 -69 -29 -81 -55 -15 -32 -16 -95 -1
-95 5 0 8 -4 4 -9 -3 -6 4 -19 16 -30 17 -16 26 -18 36 -9 11 9 12 7 7 -7 -6
-15 -3 -17 14 -13 12 4 22 2 22 -2 0 -5 13 -4 29 1 21 7 36 7 48 0 14 -8 15
-10 3 -11 -13 0 -39 -52 -42 -85 -1 -6 -8 -11 -17 -12 -9 -1 -37 -5 -62 -9
-42 -6 -49 -3 -82 25 -20 18 -37 42 -39 54 -4 29 -38 36 -38 8 0 -36 -50 -82
-95 -87 -49 -6 -82 10 -113 56 -13 19 -26 34 -29 32 -2 -2 -8 -1 -11 3 -4 4 0
5 8 3 11 -2 14 5 12 27 -3 24 -1 28 9 18 22 -21 75 -15 107 12 59 49 47 142
-22 170 -26 11 -33 20 -33 40 0 14 3 28 8 31 12 7 11 51 -1 59 -6 4 -8 10 -5
15 3 5 -9 18 -26 30 -24 18 -39 21 -71 17 -22 -3 -41 -7 -43 -9 -2 -1 3 -64
11 -138 7 -74 14 -159 14 -187 0 -29 3 -53 8 -53 4 0 7 -24 8 -52 0 -29 2
-124 3 -210 l3 -158 542 0 542 0 -2 98 c-1 53 5 169 13 257 8 88 13 172 10
187 -2 15 0 25 5 22 4 -3 8 15 8 39 0 24 2 66 5 93 3 36 2 42 -4 24 -8 -22 -9
-20 -10 18 -1 35 -4 42 -21 42 -11 0 -20 -4 -20 -10 0 -5 -5 -10 -11 -10 -8 0
-9 4 0 13 6 8 7 18 3 22 -4 5 1 5 11 2 10 -4 25 -7 33 -7 8 0 14 -10 15 -22 0
-22 1 -22 9 -3 20 50 -70 62 -119 16 -26 -24 -31 -36 -31 -75 0 -32 5 -48 15
-52 17 -7 20 -34 4 -34 -6 0 -9 -7 -6 -15 4 -8 1 -17 -5 -21 -7 -5 -8 -2 -3 6
6 10 4 12 -8 7 -10 -3 -17 -2 -17 2 0 5 6 12 13 14 9 4 9 6 -1 6 -8 1 -27 -12
-43 -28 -38 -38 -39 -87 -4 -130 17 -20 31 -28 42 -24 9 4 14 2 10 -3 -3 -6
11 -11 34 -12 22 -2 39 2 39 8 0 5 5 10 11 10 5 0 7 -4 4 -10 -3 -5 -1 -10 4
-10 6 0 11 -9 11 -20 0 -11 -4 -20 -10 -20 -5 0 -7 6 -4 14 3 8 1 17 -5 21 -7
4 -11 -5 -11 -22 0 -54 -57 -103 -119 -103 -37 0 -108 57 -103 83 2 9 -4 20
-13 23 -19 8 -20 7 -29 -29 -4 -19 -3 -26 4 -22 5 3 10 1 10 -5 0 -7 -6 -10
-14 -7 -8 3 -20 -1 -27 -10 -8 -8 -22 -19 -34 -23 -19 -8 -19 -9 3 -9 12 -1
22 3 22 8 0 5 9 11 20 14 26 7 25 3 -4 -16 -27 -18 -111 -35 -86 -18 13 9 13
11 -2 11 -9 0 -18 -4 -20 -9 -1 -4 -14 -11 -28 -15 l-25 -7 24 14 24 15 -24
12 c-13 7 -30 21 -37 32 -7 10 -20 18 -29 18 -12 0 -13 -3 -4 -14 10 -11 9
-14 -4 -12 -8 1 -21 8 -28 16 -7 8 -8 10 -1 7 7 -4 15 0 18 9 3 8 11 12 17 8
8 -5 10 1 6 18 -5 18 -2 30 10 39 12 10 14 10 9 2 -5 -10 5 -13 42 -13 41 0
53 5 77 30 32 33 40 76 24 127 -7 23 -22 38 -55 53 -49 24 -50 26 -29 54 27
36 12 99 -31 137 -21 19 -68 29 -102 22z m103 -43 c14 -15 15 -20 4 -20 -8 0
-20 9 -27 20 -7 11 -8 20 -4 20 5 0 17 -9 27 -20z m-607 -11 c-11 -6 -16 -19
-14 -37 2 -15 1 -21 -1 -14 -3 7 -8 10 -12 8 -4 -3 -6 5 -5 17 1 12 3 25 3 30
1 4 11 7 24 7 19 -1 20 -2 5 -11z m1036 -3 c-3 -8 -14 -16 -26 -19 -19 -5 -19
-5 -2 14 20 22 36 25 28 5z m-961 -28 c6 -22 5 -22 -8 -4 -17 22 -20 40 -6 32
5 -3 11 -16 14 -28z m1017 13 c0 -5 -7 -14 -15 -21 -10 -9 -15 -9 -15 -1 0 6
5 11 11 11 5 0 7 5 4 10 -3 6 -1 10 4 10 6 0 11 -4 11 -9z m-462 -13 c-5 -14
-38 -20 -38 -6 0 6 7 8 15 4 8 -3 15 -1 15 4 0 6 3 10 6 10 3 0 4 -5 2 -12z
m-595 -13 c-3 -9 -8 -14 -10 -11 -3 3 -2 9 2 15 9 16 15 13 8 -4z m-26 -17
c-3 -8 -6 -5 -6 6 -1 11 2 17 5 13 3 -3 4 -12 1 -19z m59 -17 c-11 -17 -25
-13 -21 7 2 9 4 19 4 22 1 2 6 -1 12 -7 6 -6 8 -16 5 -22z m371 7 c-3 -8 -6
-5 -6 6 -1 11 2 17 5 13 3 -3 4 -12 1 -19z m203 2 c0 -5 -4 -10 -10 -10 -5 0
-10 5 -10 10 0 6 5 10 10 10 6 0 10 -4 10 -10z m421 -13 c-10 -9 -11 -8 -5 6
3 10 9 15 12 12 3 -3 0 -11 -7 -18z m-441 -19 c0 -5 -4 -8 -10 -8 -5 0 -10 10
-10 23 0 18 2 19 10 7 5 -8 10 -18 10 -22z m452 -31 c2 -13 -1 -28 -8 -34 -9
-9 -11 -4 -9 20 4 47 10 51 17 14z m-1075 -9 c-3 -8 -6 -5 -6 6 -1 11 2 17 5
13 3 -3 4 -12 1 -19z m61 -16 c-12 -5 -39 19 -33 29 3 4 14 1 23 -9 10 -9 14
-19 10 -20z m546 29 c3 -5 -2 -15 -12 -22 -15 -12 -16 -12 -5 2 7 9 10 19 6
22 -3 4 -4 7 0 7 3 0 8 -4 11 -9z m-149 -31 c-3 -5 -12 -10 -18 -10 -7 0 -6 4
3 10 19 12 23 12 15 0z m580 0 c-3 -5 -10 -10 -16 -10 -5 0 -9 5 -9 10 0 6 7
10 16 10 8 0 12 -4 9 -10z m-400 -10 c-3 -5 -10 -10 -16 -10 -5 0 -9 5 -9 10
0 6 7 10 16 10 8 0 12 -4 9 -10z m55 -16 c0 -4 -7 -4 -14 -1 -11 4 -13 1 -10
-11 5 -14 4 -15 -5 -2 -19 26 -14 42 9 30 11 -6 20 -13 20 -16z m-536 -35 c15
-30 10 -39 -26 -52 -12 -4 -18 -1 -18 9 0 11 6 13 20 9 22 -7 25 2 10 39 -5
14 -17 26 -25 26 -9 0 -13 5 -10 10 9 15 30 -4 49 -41z m270 36 c3 -8 1 -15
-4 -15 -6 0 -10 7 -10 15 0 8 2 15 4 15 2 0 6 -7 10 -15z m56 5 c0 -5 -8 -10
-17 -10 -15 0 -16 2 -3 10 19 12 20 12 20 0z m-89 -17 c-5 -10 -14 -31 -21
-48 -9 -20 -14 -25 -18 -15 -3 7 0 16 7 18 6 2 11 14 11 26 0 24 7 36 22 36 4
0 4 -8 -1 -17z m656 -8 c0 -8 -4 -15 -8 -15 -4 0 -9 7 -13 15 -3 9 0 15 8 15
7 0 13 -7 13 -15z m-343 -11 c3 -9 6 -23 6 -32 0 -13 -3 -12 -15 4 -16 21 -19
44 -6 44 5 0 12 -7 15 -16z m363 -6 c-3 -8 -6 -5 -6 6 -1 11 2 17 5 13 3 -3 4
-12 1 -19z m-940 -10 c-3 -8 -6 -5 -6 6 -1 11 2 17 5 13 3 -3 4 -12 1 -19z
m554 -32 c14 -15 11 -26 -8 -26 -14 0 -15 2 -4 9 9 6 10 11 2 15 -6 4 -10 17
-10 29 1 20 2 20 6 2 3 -11 9 -24 14 -29z m-263 -7 c-3 -8 -7 -3 -11 10 -4 17
-3 21 5 13 5 -5 8 -16 6 -23z m-18 1 c0 -5 -5 -10 -11 -10 -8 0 -8 -5 1 -15 7
-8 16 -12 21 -9 5 3 9 1 9 -5 0 -16 -18 -22 -23 -9 -4 10 -8 9 -16 -2 -8 -11
-9 -8 -6 15 2 17 4 33 4 38 1 11 21 8 21 -3z m-249 -32 c-9 -25 -47 -43 -57
-26 -4 6 -3 8 3 5 6 -4 19 0 29 8 15 11 16 15 4 15 -12 1 2 11 27 19 1 1 -1
-9 -6 -21z m549 -13 c-7 -8 -22 -14 -34 -14 -17 1 -18 2 -3 6 9 2 15 9 12 14
-3 5 1 6 9 3 11 -4 16 0 17 12 0 12 3 14 6 6 3 -7 -1 -19 -7 -27z m246 20
c-11 -8 -25 -15 -30 -15 -6 0 -2 7 8 15 11 8 25 15 30 15 6 0 2 -7 -8 -15z
m36 -14 c8 11 9 11 6 1 -4 -16 -22 -18 -25 -2 -1 7 0 6 4 -1 4 -8 8 -7 15 2z
m-932 -11 c13 -8 13 -11 1 -22 -9 -8 -12 -9 -7 -1 3 6 -2 16 -11 22 -10 6 -13
10 -8 11 6 0 17 -5 25 -10z m-43 -47 c-3 -10 -5 -4 -5 12 0 17 2 24 5 18 2 -7
2 -21 0 -30z m265 -62 c-13 -8 -4 -51 11 -51 6 0 8 -2 5 -5 -7 -8 -58 16 -58
27 0 4 4 8 8 8 5 0 15 12 22 26 8 14 16 20 18 14 3 -7 0 -15 -6 -19z m799 2
c7 -10 9 -15 5 -11 -5 4 -15 3 -22 -3 -9 -8 -11 -5 -7 10 6 25 7 25 24 4z
m-1037 -20 c4 -9 2 -21 -5 -27 -8 -8 -10 -6 -7 9 2 13 -2 19 -10 17 -8 -1 -11
2 -7 8 9 15 22 12 29 -7z m308 -43 c7 0 6 -5 -2 -15 -7 -8 -18 -15 -24 -14 -7
0 -6 2 2 6 16 6 16 23 -1 23 -8 0 -19 12 -26 28 l-12 27 26 -27 c14 -16 31
-28 37 -28z m512 8 c12 -9 17 -17 12 -18 -16 0 -46 32 -45 49 0 13 2 13 6 1 4
-8 16 -22 27 -32z m-33 -8 c5 0 9 -5 9 -12 0 -6 -8 -4 -19 6 -12 11 -17 24
-13 34 6 14 7 13 10 -5 2 -13 8 -23 13 -23z m219 21 c0 -5 -7 -12 -16 -15 -24
-9 -28 -7 -14 9 14 17 30 20 30 6z m-964 -24 c9 3 14 -1 14 -13 0 -11 -3 -15
-8 -9 -4 6 -19 10 -34 10 -26 -1 -27 0 -10 18 14 16 17 17 20 4 2 -9 9 -14 18
-10z m534 3 c0 -5 -7 -7 -15 -4 -8 4 -15 8 -15 10 0 2 7 4 15 4 8 0 15 -4 15
-10z m-351 -9 c10 -7 7 -9 -12 -8 -14 1 -23 5 -20 10 6 9 15 9 32 -2z m530 -5
c9 -11 6 -12 -15 -8 -19 3 -22 7 -12 13 16 11 14 11 27 -5z m201 4 c0 -6 12
-8 28 -5 23 5 24 5 9 -5 -10 -6 -23 -9 -30 -7 -7 2 -20 0 -31 -5 -12 -7 -22
-6 -29 1 -8 8 -3 11 19 11 22 0 26 3 14 10 -13 8 -12 10 3 10 9 0 17 -5 17
-10z m-832 -7 c-10 -2 -26 -2 -35 0 -10 3 -2 5 17 5 19 0 27 -2 18 -5z m237
-3 c-11 -5 -27 -9 -35 -9 -9 0 -8 4 5 9 11 5 27 9 35 9 9 0 8 -4 -5 -9z m85
-4 c-4 -4 -21 -4 -37 2 -28 10 -28 10 9 8 21 0 33 -5 28 -10z m-473 -18 c-3
-8 -6 -5 -6 6 -1 11 2 17 5 13 3 -3 4 -12 1 -19z m758 -18 c3 -5 1 -10 -4 -10
-6 0 -11 5 -11 10 0 6 2 10 4 10 3 0 8 -4 11 -10z m43 -217 c-148 -2 -388 -2
-535 0 -148 1 -27 2 267 2 294 0 415 -1 268 -2z"/>
<path d="M7774 3473 c-33 -6 -81 -60 -66 -75 8 -8 15 -8 28 3 16 13 16 12 6
-8 -7 -12 -9 -30 -6 -40 3 -10 -2 -6 -11 10 -19 34 -35 35 -35 3 0 -39 18 -76
37 -76 15 0 16 -2 3 -10 -8 -5 -24 -10 -35 -10 -24 -1 -57 -27 -74 -57 -24
-45 -6 -127 31 -138 10 -4 18 -11 18 -17 0 -7 21 -9 61 -5 l60 5 -7 -31 c-10
-48 -35 -76 -79 -89 -22 -6 -44 -15 -50 -19 -5 -3 -19 -3 -30 2 l-20 8 20 1
c15 1 16 3 5 7 -8 3 -27 17 -42 31 -27 24 -41 19 -16 -6 6 -6 8 -15 4 -19 -14
-14 -25 22 -19 60 5 31 3 37 -12 37 -14 0 -15 -3 -5 -15 11 -13 10 -14 -5 -8
-15 5 -17 3 -11 -12 4 -11 4 -17 1 -14 -3 4 -21 -9 -41 -29 -32 -32 -38 -34
-81 -29 -37 4 -54 12 -75 36 -15 17 -28 40 -28 50 0 11 -7 27 -16 36 -20 19
-11 33 10 16 8 -7 32 -11 52 -9 34 3 36 4 22 19 -15 14 -14 17 6 29 l21 14
-25 7 c-20 6 -21 7 -5 8 11 0 27 -4 35 -9 12 -8 12 -10 1 -10 -11 0 -11 -3 -1
-15 9 -10 9 -15 1 -15 -6 0 -11 5 -11 11 0 5 -5 7 -10 4 -8 -5 -7 -12 2 -22
11 -13 16 -11 39 15 23 26 27 38 24 73 -5 50 -21 71 -36 49 -9 -12 -10 -11 -5
4 4 11 1 23 -6 28 -18 11 -61 10 -54 -1 3 -5 15 -7 26 -4 15 4 20 1 19 -13 0
-11 -3 -14 -6 -6 -2 6 -9 12 -14 12 -6 0 -7 -5 -3 -11 5 -8 1 -8 -14 0 -25 13
-38 31 -23 31 6 0 11 5 11 11 0 6 7 17 15 25 16 16 20 80 6 102 -6 11 -15 10
-49 -1 -33 -12 -39 -12 -35 -1 5 13 20 18 51 17 17 -1 15 7 -5 23 -29 22 -113
16 -113 -8 0 -6 7 -8 15 -4 9 3 15 0 15 -10 0 -8 -4 -12 -10 -9 -6 4 -10 -17
-10 -55 0 -34 3 -59 8 -57 4 3 8 -41 10 -97 1 -55 7 -139 12 -186 5 -47 10
-149 10 -227 l0 -143 545 0 545 0 2 173 c2 174 5 248 9 257 4 10 36 365 33
369 -2 2 -22 5 -46 8 -35 3 -48 0 -73 -21 -16 -14 -24 -25 -17 -26 6 0 12 5
12 10 0 6 4 10 9 10 5 0 8 -11 7 -25 -1 -23 -16 -37 -16 -15 0 6 -7 10 -15 10
-11 0 -15 -11 -15 -43 0 -24 4 -47 9 -52 15 -17 23 -55 11 -55 -6 0 -8 5 -5
10 12 19 -34 10 -60 -13 -18 -15 -28 -36 -32 -64 -5 -39 -2 -46 30 -78 27 -27
43 -35 71 -35 20 0 36 5 36 11 0 5 4 8 9 5 12 -8 3 -66 -15 -94 -8 -12 -31
-30 -50 -39 -29 -14 -42 -15 -77 -6 -40 11 -57 9 -57 -5 0 -14 131 -14 148 0
15 11 16 11 4 -4 -7 -9 -9 -18 -3 -20 5 -1 2 -10 -7 -18 -14 -13 -15 -12 -9 3
5 15 0 17 -42 17 -27 0 -57 3 -67 7 -13 5 -16 3 -12 -9 8 -18 -10 -38 -31 -37
-10 0 -7 4 7 10 22 8 22 10 7 25 -14 15 -14 18 -1 33 14 15 13 21 -5 59 -23
45 -49 56 -49 20 0 -17 3 -20 9 -9 7 11 13 6 25 -20 11 -21 12 -27 3 -17 -14
18 -44 19 -55 1 -4 -5 -18 -16 -31 -23 -19 -9 -21 -14 -10 -21 16 -10 -52 -2
-94 11 -15 5 -35 7 -45 4 -13 -4 -14 -3 -4 4 11 7 11 12 -2 24 -8 9 -13 18
-10 21 3 3 -4 10 -15 17 -14 7 -21 7 -21 0 0 -5 5 -10 10 -10 6 0 10 -4 10 -8
0 -5 -7 -9 -15 -9 -9 0 -15 10 -15 24 0 19 4 23 19 18 16 -5 18 -2 14 16 -6
20 -4 21 23 14 16 -4 34 -7 39 -7 51 2 108 43 98 70 -4 10 -2 13 5 8 9 -5 12
5 12 34 0 34 -6 48 -34 76 -19 19 -42 34 -52 34 -15 0 -16 -2 -5 -9 7 -5 10
-14 7 -20 -9 -14 -53 -14 -62 0 -4 8 1 9 16 4 19 -6 21 -4 18 17 -2 12 3 28
10 33 7 6 16 30 19 53 5 34 3 42 -11 42 -17 0 -18 -20 -1 -32 6 -5 6 -11 0
-17 -7 -7 -14 -1 -22 19 -6 17 -7 30 -2 30 4 0 6 8 3 18 -5 14 -4 14 5 2 5 -8
13 -11 17 -7 9 9 -36 58 -47 52 -4 -3 -9 -1 -11 4 -4 12 -46 20 -74 14z m32
-10 c-18 -5 -18 -6 5 -20 l24 -14 -25 7 c-31 8 -34 10 -25 23 3 6 14 10 23 10
13 -1 13 -2 -2 -6z m-36 -34 c0 -4 -7 -6 -15 -3 -8 4 -15 10 -15 15 0 4 7 6
15 3 8 -4 15 -10 15 -15z m-480 -1 c0 -4 -9 -8 -20 -8 -11 0 -20 4 -20 8 0 4
9 8 20 8 11 0 20 -4 20 -8z m567 -20 c-3 -8 -6 -5 -6 6 -1 11 2 17 5 13 3 -3
4 -12 1 -19z m523 7 c0 -8 -4 -15 -10 -15 -5 0 -10 5 -10 12 0 9 -3 9 -12 0
-17 -17 -31 -15 -16 3 17 19 48 19 48 0z m-1110 -9 c0 -3 -4 -8 -10 -11 -5 -3
-10 -1 -10 4 0 6 5 11 10 11 6 0 10 -2 10 -4z m1044 -12 c3 -8 2 -12 -4 -9 -6
3 -10 10 -10 16 0 14 7 11 14 -7z m-1077 -41 c-3 -10 -5 -4 -5 12 0 17 2 24 5
18 2 -7 2 -21 0 -30z m1142 14 c-1 -17 -2 -18 -6 -4 -2 9 -8 15 -13 12 -5 -3
-11 -2 -14 3 -2 4 4 9 15 9 14 1 19 -4 18 -20z m-516 -1 c4 -10 1 -13 -8 -9
-8 3 -12 9 -9 14 7 12 11 11 17 -5z m-106 -48 c-3 -7 -5 -2 -5 12 0 14 2 19 5
13 2 -7 2 -19 0 -25z m-512 2 c3 -5 1 -10 -4 -10 -6 0 -11 5 -11 10 0 6 2 10
4 10 3 0 8 -4 11 -10z m1092 -12 c-3 -8 -6 -5 -6 6 -1 11 2 17 5 13 3 -3 4
-12 1 -19z m-467 -3 c0 -8 -4 -15 -10 -15 -5 0 -7 7 -4 15 4 8 8 15 10 15 2 0
4 -7 4 -15z m-583 -27 c-3 -8 -6 -5 -6 6 -1 11 2 17 5 13 3 -3 4 -12 1 -19z
m1003 18 c0 -3 -4 -8 -10 -11 -5 -3 -10 -1 -10 4 0 6 5 11 10 11 6 0 10 -2 10
-4z m73 -11 c-3 -9 -8 -14 -10 -11 -3 3 -2 9 2 15 9 16 15 13 8 -4z m-33 -14
c13 -25 13 -41 0 -21 -9 13 -10 13 -11 0 -1 -8 -1 -18 0 -22 0 -5 -4 -8 -10
-8 -6 0 -9 6 -6 13 19 47 20 50 9 43 -7 -4 -12 -2 -12 3 0 18 19 12 30 -8z
m-465 -9 c-3 -3 -11 0 -18 7 -9 10 -8 11 6 5 10 -3 15 -9 12 -12z m-105 -13
c0 -5 -4 -9 -10 -9 -5 0 -10 7 -10 16 0 8 5 12 10 9 6 -3 10 -10 10 -16z m-40
-5 c0 -12 -7 -15 -25 -12 -15 3 -32 -2 -45 -14 -11 -10 -20 -14 -20 -9 0 17
46 42 64 35 9 -3 16 -1 16 5 0 6 2 11 5 11 3 0 5 -7 5 -16z m233 -34 c-3 -11
-8 -20 -10 -20 -3 0 -3 9 0 21 4 15 2 19 -8 15 -9 -3 -12 0 -8 10 8 22 32 -2
26 -26z m282 30 c-3 -5 -1 -10 4 -10 6 0 11 -5 11 -12 0 -9 -3 -9 -12 0 -17
17 -28 15 -22 -5 5 -15 4 -15 -4 -3 -8 10 -8 18 0 27 12 15 32 18 23 3z m-945
-20 c0 -5 -2 -10 -4 -10 -3 0 -8 5 -11 10 -3 6 -1 10 4 10 6 0 11 -4 11 -10z
m463 -7 c-7 -2 -19 -2 -25 0 -7 3 -2 5 12 5 14 0 19 -2 13 -5z m602 -37 c0
-24 -3 -42 -7 -39 -14 8 -8 83 6 83 1 0 1 -20 1 -44z m-974 11 c-10 -9 -11 -8
-5 6 3 10 9 15 12 12 3 -3 0 -11 -7 -18z m276 1 c-3 -8 -6 -5 -6 6 -1 11 2 17
5 13 3 -3 4 -12 1 -19z m535 0 c-7 -7 -12 -8 -12 -2 0 14 12 26 19 19 2 -3 -1
-11 -7 -17z m-462 2 c0 -5 -7 -10 -16 -10 -8 0 -12 5 -9 10 3 6 10 10 16 10 5
0 9 -4 9 -10z m160 0 c0 -5 -5 -10 -11 -10 -5 0 -7 5 -4 10 3 6 8 10 11 10 2
0 4 -4 4 -10z m96 -15 c9 -37 0 -40 -13 -5 -6 17 -7 30 -2 30 5 0 11 -11 15
-25z m265 9 c-16 -12 -21 -22 -17 -40 6 -24 -8 -42 -19 -24 -3 5 -1 10 5 10 6
0 8 5 5 10 -3 6 -10 10 -16 10 -13 0 -11 -34 4 -49 10 -11 9 -13 -2 -9 -8 2
-19 17 -24 32 -7 22 -5 30 9 41 10 7 22 11 26 9 5 -3 8 2 8 10 0 10 9 16 22
16 l22 0 -23 -16z m-896 -3 c3 -5 1 -12 -5 -16 -5 -3 -10 1 -10 9 0 18 6 21
15 7z m328 -6 c-3 -9 -8 -14 -10 -11 -3 3 -2 9 2 15 9 16 15 13 8 -4z m-49
-10 c-4 -8 -8 -15 -10 -15 -2 0 -4 7 -4 15 0 8 4 15 10 15 5 0 7 -7 4 -15z
m-314 -4 c0 -6 -4 -13 -10 -16 -5 -3 -10 1 -10 9 0 9 5 16 10 16 6 0 10 -4 10
-9z m85 -1 c-3 -5 -12 -10 -18 -10 -7 0 -6 4 3 10 19 12 23 12 15 0z m556 3
c5 -37 6 -73 0 -73 -3 0 -11 11 -17 24 -9 20 -9 23 2 19 10 -3 12 0 8 10 -3 9
-12 13 -21 10 -11 -4 -14 -2 -9 5 8 13 35 16 37 5z m366 -25 c-3 -8 -6 -5 -6
6 -1 11 2 17 5 13 3 -3 4 -12 1 -19z m-1063 -13 c-4 -8 -8 -15 -10 -15 -2 0
-4 7 -4 15 0 8 4 15 10 15 5 0 7 -7 4 -15z m36 -14 c0 -5 -6 -11 -13 -14 -8
-3 -14 1 -14 9 0 8 6 14 14 14 7 0 13 -4 13 -9z m640 -10 c0 -4 -6 -8 -14 -8
-8 0 -12 6 -9 14 5 13 23 9 23 -6z m-280 -1 c0 -5 -2 -10 -4 -10 -3 0 -8 5
-11 10 -3 6 -1 10 4 10 6 0 11 -4 11 -10z m610 -7 c0 -3 -7 -3 -15 1 -8 3 -15
0 -15 -6 0 -6 -3 -9 -6 -5 -11 10 6 26 21 20 8 -3 15 -7 15 -10z m-580 -28 c0
-5 -5 -3 -10 5 -5 8 -10 20 -10 25 0 6 5 3 10 -5 5 -8 10 -19 10 -25z m40 31
c0 -2 -7 -7 -16 -10 -8 -3 -12 -2 -9 4 6 10 25 14 25 6z m607 -28 c-3 -7 -5
-2 -5 12 0 14 2 19 5 13 2 -7 2 -19 0 -25z m-453 6 c3 -8 2 -12 -4 -9 -6 3
-10 10 -10 16 0 14 7 11 14 -7z m46 2 c0 -2 -7 -6 -15 -10 -8 -3 -15 -1 -15 4
0 6 7 10 15 10 8 0 15 -2 15 -4z m-640 -63 c0 -19 -13 -9 -16 12 -1 8 2 13 7
9 5 -3 9 -12 9 -21z m1060 -13 c0 -11 -2 -20 -4 -20 -2 0 -6 9 -9 20 -3 11 -1
20 4 20 5 0 9 -9 9 -20z m-810 -40 c0 -5 -7 -7 -15 -4 -8 4 -15 8 -15 10 0 2
7 4 15 4 8 0 15 -4 15 -10z m780 -11 c0 -6 -4 -7 -10 -4 -5 3 -10 11 -10 16 0
6 5 7 10 4 6 -3 10 -11 10 -16z m-1035 -29 c2 -16 -1 -27 -6 -24 -5 3 -9 19
-9 36 0 39 12 29 15 -12z m775 31 c0 -5 -9 -12 -20 -16 -12 -4 -19 -14 -17
-27 1 -11 -3 -23 -10 -25 -15 -6 -5 36 15 60 16 19 32 23 32 8z m25 0 c3 -5 2
-12 -3 -15 -5 -3 -9 1 -9 9 0 17 3 19 12 6z m-599 -26 c-26 -19 -42 -19 -26 0
7 8 20 15 29 15 13 -1 13 -3 -3 -15z m54 5 c0 -5 -7 -10 -16 -10 -8 0 -12 -5
-9 -10 4 -6 3 -10 -2 -9 -20 3 -34 -2 -28 -11 3 -6 -1 -7 -10 -4 -12 5 -7 12
22 30 44 27 43 27 43 14z m220 0 c0 -5 -7 -7 -15 -4 -8 4 -15 8 -15 10 0 2 7
4 15 4 8 0 15 -4 15 -10z m580 -10 c0 -13 -5 -18 -15 -14 -8 4 -15 10 -15 16
0 5 5 6 10 3 6 -3 10 -1 10 4 0 6 2 11 5 11 3 0 5 -9 5 -20z m-960 6 c0 -9
-30 -14 -35 -6 -4 6 3 10 14 10 12 0 21 -2 21 -4z m318 -10 c-10 -7 -18 -19
-18 -26 0 -7 -3 -10 -7 -6 -14 14 -9 31 12 38 30 9 32 9 13 -6z m202 3 c12 -8
10 -9 -8 -4 -16 5 -22 3 -20 -7 5 -22 38 -30 54 -13 9 8 25 15 37 14 20 -1 19
-2 -5 -12 -16 -6 -28 -17 -28 -24 0 -11 -5 -11 -20 -3 -11 6 -25 8 -30 5 -6
-4 -17 1 -26 9 -14 15 -14 16 3 17 12 0 14 2 4 6 -11 5 -11 7 0 14 18 11 21
11 39 -2z m-565 -17 c-3 -3 -11 0 -18 7 -9 10 -8 11 6 5 10 -3 15 -9 12 -12z
m399 3 c-4 -8 -8 -15 -10 -15 -2 0 -4 7 -4 15 0 8 4 15 10 15 5 0 7 -7 4 -15z
m-334 -9 c-5 -7 -7 -16 -3 -19 3 -4 1 -7 -5 -7 -7 0 -12 5 -12 10 0 6 -7 10
-16 10 -26 0 -8 15 20 16 20 2 24 -1 16 -10z m150 10 c0 -3 -4 -8 -10 -11 -5
-3 -10 -1 -10 4 0 6 5 11 10 11 6 0 10 -2 10 -4z m60 -8 c0 -4 -3 -8 -7 -9
-57 -6 -56 -6 -40 6 19 13 47 16 47 3z m147 -7 c0 -11 -5 -18 -9 -15 -4 3 -5
11 -1 19 7 21 12 19 10 -4z m330 3 c-3 -3 -12 -4 -19 -1 -8 3 -5 6 6 6 11 1
17 -2 13 -5z m228 -4 c3 -5 1 -10 -4 -10 -6 0 -11 5 -11 10 0 6 2 10 4 10 3 0
8 -4 11 -10z m-121 -12 c5 -10 7 -10 12 0 3 6 11 12 17 12 6 0 4 -8 -6 -17
-16 -16 -18 -16 -34 0 -10 9 -12 17 -6 17 6 0 14 -6 17 -12z m-874 -2 c0 -2
-9 -6 -20 -9 -11 -3 -18 -1 -14 4 5 9 34 13 34 5z m410 0 c0 -9 -30 -14 -35
-6 -4 6 3 10 14 10 12 0 21 -2 21 -4z m607 -158 c-2 -13 -4 -3 -4 22 0 25 2
35 4 23 2 -13 2 -33 0 -45z"/>
<path d="M1142 3292 c-88 -32 -132 -87 -132 -164 0 -45 25 -97 63 -130 12 -10
73 -44 135 -74 148 -72 182 -123 130 -189 -56 -72 -197 -72 -303 0 -20 14 -39
25 -40 23 -8 -7 25 -122 36 -129 26 -16 143 -31 199 -26 141 12 250 105 250
212 0 77 -37 114 -196 193 -134 67 -174 115 -144 173 35 64 193 65 262 2 17
-15 18 -13 18 44 0 74 0 74 -130 79 -76 4 -106 1 -148 -14z"/>
<path d="M3917 3295 c-71 -18 -109 -37 -165 -82 -89 -72 -134 -202 -112 -323
14 -79 30 -110 86 -170 87 -93 235 -133 417 -112 164 20 147 -2 147 183 0 88
1 162 3 167 2 8 -119 16 -139 8 -12 -4 -10 -10 6 -26 18 -18 20 -33 20 -129 0
-65 -4 -112 -10 -116 -6 -4 -43 -9 -83 -12 -101 -8 -170 13 -235 72 -155 139
-113 395 76 459 86 30 201 18 265 -26 l27 -19 0 60 c0 34 -5 63 -11 67 -24 14
-233 14 -292 -1z"/>
<path d="M5080 3290 c-130 -45 -170 -174 -83 -271 24 -27 71 -57 149 -95 120
-58 154 -89 154 -141 0 -54 -70 -103 -148 -103 -53 0 -131 25 -177 55 -20 14
-39 25 -41 23 -1 -2 4 -31 13 -66 14 -58 18 -62 52 -72 61 -18 163 -23 221
-11 110 23 200 112 200 198 0 87 -36 125 -193 202 -138 67 -178 114 -147 172
29 53 144 66 226 24 27 -14 50 -25 52 -25 1 0 2 25 2 55 0 54 0 54 -37 64 -61
17 -181 13 -243 -9z"/>
<path d="M1495 3290 c-3 -5 -2 -10 2 -10 18 0 50 -74 143 -327 53 -144 104
-273 114 -287 16 -25 93 -83 100 -75 6 8 266 690 266 700 0 5 -34 9 -75 9 -41
0 -75 -3 -75 -6 0 -3 7 -13 16 -22 12 -11 15 -27 12 -56 -5 -42 -157 -456
-167 -456 -7 0 -143 369 -174 473 l-21 67 -67 0 c-37 0 -71 -4 -74 -10z"/>
<path d="M2190 3295 c0 -3 9 -14 20 -25 19 -19 20 -33 20 -312 0 -286 0 -292
-22 -315 l-21 -23 215 0 215 0 22 61 c13 33 21 62 19 64 -2 2 -27 -8 -56 -22
-43 -21 -65 -25 -129 -25 -42 1 -90 4 -105 7 l-29 7 3 116 3 117 68 -2 c37 0
74 -7 82 -13 13 -11 15 -4 15 44 l0 57 -67 -1 c-38 -1 -76 -1 -85 -1 -16 1
-18 12 -18 90 l0 90 45 7 c55 8 126 -2 151 -21 30 -23 34 -18 34 44 l0 60
-190 1 c-104 0 -190 -2 -190 -5z"/>
<path d="M2720 3296 c0 -3 9 -15 20 -26 19 -19 20 -33 20 -315 0 -282 -1 -296
-20 -315 l-20 -20 94 0 94 0 -19 37 c-17 34 -19 62 -19 300 l0 262 43 6 c115
17 194 -80 138 -171 -19 -31 -91 -74 -124 -74 -32 0 -28 -23 18 -93 56 -84
165 -218 202 -247 21 -16 40 -20 102 -20 l76 1 -30 22 c-65 48 -112 96 -191
197 l-83 105 37 17 c148 73 162 242 26 308 -42 21 -66 24 -206 28 -87 3 -158
2 -158 -2z"/>
<path d="M3349 3274 c20 -26 21 -38 21 -320 0 -281 -1 -295 -20 -314 l-20 -20
94 0 93 0 -19 39 c-18 36 -19 59 -16 314 3 245 5 277 21 294 9 11 17 23 17 26
0 4 -43 7 -96 7 l-95 0 20 -26z"/>
<path d="M4427 3294 c-4 -4 0 -12 9 -19 26 -19 33 -89 33 -320 -1 -239 -7
-302 -35 -322 -15 -11 16 -13 200 -11 l219 3 18 50 c27 76 25 78 -32 49 -42
-21 -65 -25 -126 -25 -41 0 -89 3 -107 7 l-34 6 2 116 1 117 68 -2 c37 0 74
-6 81 -12 19 -16 21 -9 17 50 l-3 52 -73 -6 c-54 -5 -76 -3 -84 6 -5 7 -10 48
-9 91 0 73 2 78 25 87 41 15 116 10 158 -11 22 -11 41 -20 42 -20 2 0 3 27 3
59 l0 59 -183 2 c-101 0 -186 -2 -190 -6z"/>
<path d="M7068 2439 c-15 -6 -36 -25 -48 -43 -22 -36 -27 -101 -9 -112 8 -4 9
3 4 26 -5 24 -4 31 5 25 8 -5 10 -20 7 -40 -3 -18 -1 -37 5 -43 6 -6 -5 -14
-33 -23 -93 -30 -115 -130 -44 -196 28 -27 42 -33 77 -32 33 0 38 2 23 9 -23
10 -10 12 23 4 26 -7 29 -32 8 -73 -22 -41 -59 -61 -112 -61 -41 0 -51 5 -80
36 -19 19 -34 44 -34 55 0 27 -40 26 -41 -1 -3 -37 -4 -40 -27 -55 -12 -9 -20
-20 -17 -25 3 -5 0 -12 -6 -16 -7 -4 -9 -3 -6 3 4 6 -14 8 -46 5 -46 -4 -57
-1 -85 23 -29 24 -57 88 -47 106 3 4 22 5 42 4 85 -8 142 71 108 151 -9 23
-26 39 -52 51 -21 10 -39 18 -41 19 -2 1 4 16 13 33 13 25 14 39 5 71 -15 55
-52 82 -109 78 l-46 -3 2 -60 c1 -33 9 -139 18 -235 9 -96 19 -259 22 -362 l6
-188 568 0 569 0 0 134 c0 74 9 237 21 363 11 125 18 238 16 251 -2 12 0 22 4
22 16 0 10 68 -7 74 -60 23 -126 -10 -145 -73 -9 -31 -8 -43 6 -71 17 -33 10
-49 -21 -50 -15 0 -49 -31 -63 -59 -8 -13 -10 -37 -7 -56 7 -35 52 -88 67 -79
5 3 9 0 9 -6 0 -7 16 -10 43 -8 29 2 42 -1 41 -10 -1 -6 -2 -21 -2 -33 -1 -12
-17 -36 -36 -55 -27 -27 -42 -34 -72 -34 -29 0 -35 -3 -24 -10 13 -8 12 -10
-3 -10 -10 0 -20 7 -24 16 -3 8 -12 13 -20 10 -9 -4 -11 -2 -7 6 5 7 2 9 -9 5
-11 -4 -14 -2 -11 7 3 7 -2 16 -11 20 -9 3 -13 11 -9 17 4 8 -1 9 -17 5 -20
-6 -21 -5 -7 4 19 12 13 40 -8 40 -8 0 -14 -9 -14 -19 0 -11 -15 -36 -34 -55
-28 -30 -40 -36 -74 -36 -58 0 -89 15 -112 52 -22 37 -29 101 -8 80 22 -22 94
-14 126 13 45 37 58 77 42 125 -16 48 -47 81 -59 62 -6 -10 -15 -10 -34 -3
-27 11 -36 34 -17 46 6 4 8 15 5 24 -3 10 -1 29 5 42 9 21 9 20 4 -10 -4 -23
-3 -31 5 -27 30 19 -5 143 -37 131 -7 -2 -10 0 -7 5 7 12 -37 30 -68 29 -12 0
-34 -5 -49 -10z m39 -11 c0 -7 -14 -14 -31 -15 l-31 -2 25 13 c32 18 37 19 37
4z m52 3 c10 -7 7 -9 -12 -8 -15 1 -27 5 -27 10 0 10 22 9 39 -2z m-589 -32
c0 -6 10 -20 23 -30 20 -19 20 -20 2 -15 -26 7 -52 -13 -58 -44 -4 -24 -4 -24
-6 3 -1 19 -5 26 -13 21 -9 -5 -10 -4 -3 4 6 5 19 12 29 14 11 1 22 10 24 18
5 13 3 13 -11 1 -11 -9 -17 -10 -17 -2 0 6 4 11 10 11 5 0 7 7 4 15 -4 8 -1
15 5 15 6 0 11 -5 11 -11z m70 -31 c0 -4 -11 -2 -25 4 -14 6 -25 17 -25 25 0
11 6 10 25 -4 13 -10 25 -21 25 -25z m986 7 c-20 -16 -24 -24 -15 -28 10 -4 9
-6 -3 -6 -10 -1 -18 2 -18 6 0 12 53 63 59 57 3 -3 -7 -16 -23 -29z m75 -8
c-8 -8 -11 -5 -11 9 0 27 14 41 18 19 2 -9 -1 -22 -7 -28z m-1179 11 c-7 -7
-12 -8 -12 -2 0 14 12 26 19 19 2 -3 -1 -11 -7 -17z m519 3 c-8 -5 -11 -16 -8
-24 4 -11 1 -14 -8 -10 -17 6 -2 43 18 43 8 0 7 -3 -2 -9z m177 -22 c-3 -8 -7
-3 -11 10 -4 17 -3 21 5 13 5 -5 8 -16 6 -23z m509 9 c-3 -8 -6 -5 -6 6 -1 11
2 17 5 13 3 -3 4 -12 1 -19z m-67 -3 c-7 -8 -17 -15 -22 -15 -11 0 14 29 26
30 5 0 3 -7 -4 -15z m-1013 -21 c-3 -3 -12 -4 -19 -1 -8 3 -5 6 6 6 11 1 17
-2 13 -5z m1058 -16 c-1 -13 1 -35 5 -49 5 -15 3 -32 -5 -42 -9 -13 -11 -4
-11 48 0 36 3 65 6 65 4 0 6 -10 5 -22z m-105 -33 c0 -8 -2 -15 -4 -15 -2 0
-6 7 -10 15 -3 8 -1 15 4 15 6 0 10 -7 10 -15z m-1050 -30 c0 -8 -7 -15 -16
-15 -14 0 -14 3 -4 15 7 8 14 15 16 15 2 0 4 -7 4 -15z m8 -71 c-3 -14 -5 -12
-10 9 -3 19 -2 25 4 19 6 -6 8 -18 6 -28z m472 26 c0 -5 -7 -10 -15 -10 -8 0
-15 -6 -15 -14 0 -20 -17 -29 -26 -15 -4 8 -3 9 4 5 8 -5 12 0 12 13 0 11 8
22 18 24 9 3 18 5 20 6 1 0 2 -3 2 -9z m567 -25 c-4 -8 -12 -15 -19 -15 -9 0
-8 3 2 10 13 8 12 10 -2 10 -10 0 -18 -4 -18 -10 0 -5 -5 -10 -11 -10 -16 0 1
20 25 30 25 9 30 6 23 -15z m-920 9 c-3 -3 -12 -4 -19 -1 -8 3 -5 6 6 6 11 1
17 -2 13 -5z m1016 -9 c-3 -9 -8 -14 -10 -11 -3 3 -2 9 2 15 9 16 15 13 8 -4z
m-653 -16 c0 -6 -4 -7 -10 -4 -5 3 -10 11 -10 16 0 6 5 7 10 4 6 -3 10 -11 10
-16z m250 3 c0 -4 -9 -8 -20 -8 -11 0 -20 4 -20 8 0 4 9 8 20 8 11 0 20 -4 20
-8z m417 -14 c-3 -8 -6 -5 -6 6 -1 11 2 17 5 13 3 -3 4 -12 1 -19z m-772 -49
c0 -24 6 -44 15 -49 8 -5 11 -12 8 -15 -19 -20 -46 54 -32 89 9 23 9 21 9 -25z
m28 16 c-3 -9 -8 -14 -10 -11 -3 3 -2 9 2 15 9 16 15 13 8 -4z m548 -12 c-12
-20 -14 -14 -5 12 4 9 9 14 11 11 3 -2 0 -13 -6 -23z m-210 -52 c-7 -12 -17
-21 -23 -21 -6 0 -4 8 5 18 19 21 22 37 5 26 -7 -5 -8 -3 -3 5 13 22 28 -4 16
-28z m-601 19 c13 -8 12 -10 -3 -10 -10 0 -30 -8 -45 -17 l-27 -17 25 26 c29
30 30 31 50 18z m886 -17 c-6 -6 -36 9 -36 18 0 5 9 4 20 -3 10 -7 18 -14 16
-15z m-56 13 c0 -3 -4 -8 -10 -11 -5 -3 -10 -1 -10 4 0 6 5 11 10 11 6 0 10
-2 10 -4z m-835 -36 c-3 -5 -11 -10 -16 -10 -6 0 -7 5 -4 10 3 6 11 10 16 10
6 0 7 -4 4 -10z m870 0 c8 -13 -5 -13 -25 0 -13 8 -13 10 2 10 9 0 20 -4 23
-10z m115 5 c0 -2 -10 -9 -22 -15 -22 -11 -22 -10 -4 4 21 17 26 19 26 11z
m-483 -30 c0 -8 -7 -15 -15 -15 -12 0 -12 3 -2 15 7 8 13 15 15 15 1 0 2 -7 2
-15z m-170 -11 c-3 -3 -12 -4 -19 -1 -8 3 -5 6 6 6 11 1 17 -2 13 -5z m103 -4
c0 -5 -4 -10 -10 -10 -5 0 -10 5 -10 10 0 6 5 10 10 10 6 0 10 -4 10 -10z
m107 4 c-3 -3 -12 -4 -19 -1 -8 3 -5 6 6 6 11 1 17 -2 13 -5z m439 -34 c0 -12
-4 -16 -9 -11 -5 5 -6 14 -3 20 10 15 12 14 12 -9z m-546 0 c0 -5 -5 -10 -11
-10 -5 0 -7 5 -4 10 3 6 8 10 11 10 2 0 4 -4 4 -10z m-29 -68 c-19 -6 -12 -22
10 -22 11 0 27 -7 35 -15 9 -8 11 -15 5 -15 -5 0 -13 5 -16 10 -4 7 -12 7 -25
0 -25 -14 -30 -13 -24 5 4 8 2 15 -4 15 -5 0 -2 15 7 34 14 28 17 30 19 12 2
-11 -1 -22 -7 -24z m-511 16 c0 -6 -7 -4 -16 3 -15 12 -16 11 -11 -6 4 -11 3
-26 -2 -34 -6 -9 -9 -4 -9 15 0 16 2 32 4 36 6 10 34 -2 34 -14z m270 8 c0 -8
-7 -17 -16 -20 -13 -5 -14 -4 -6 7 7 8 9 17 5 20 -3 4 -1 7 5 7 7 0 12 -6 12
-14z m810 5 c0 -6 -4 -13 -10 -16 -5 -3 -10 1 -10 9 0 9 5 16 10 16 6 0 10 -4
10 -9z m-512 -31 c12 -19 11 -20 -8 -8 -20 13 -27 28 -12 28 4 0 13 -9 20 -20z
m262 -22 c0 -6 -6 -5 -17 3 -9 8 -26 13 -37 12 -20 -3 -20 -2 -1 6 22 9 55 -3
55 -21z m-806 7 c3 -8 13 -15 23 -16 16 0 16 -1 -2 -9 -11 -5 -27 -9 -35 -9
-13 -1 -13 1 -1 8 12 8 12 12 2 25 -8 9 -9 16 -3 16 5 0 12 -7 16 -15z m269
-2 c-4 -11 -3 -14 5 -9 7 4 19 3 28 -2 13 -7 14 -11 4 -17 -7 -4 -16 -2 -20 5
-4 6 -11 11 -16 10 -5 0 -10 6 -12 14 -2 9 1 16 7 16 6 0 7 -7 4 -17z m773 9
c6 -4 14 -16 18 -26 7 -19 6 -19 -13 -2 -11 10 -22 13 -25 8 -3 -6 0 -12 6
-15 7 -2 -2 -4 -19 -3 -32 1 -48 16 -18 16 9 0 18 7 21 15 7 17 14 18 30 7z
m-296 -22 c0 -5 -2 -10 -4 -10 -3 0 -8 5 -11 10 -3 6 -1 10 4 10 6 0 11 -4 11
-10z m-25 -10 c3 -5 2 -10 -4 -10 -5 0 -13 5 -16 10 -3 6 -2 10 4 10 5 0 13
-4 16 -10z m65 -40 c0 -5 -2 -10 -4 -10 -3 0 -8 5 -11 10 -3 6 -1 10 4 10 6 0
11 -4 11 -10z"/>
<path d="M3566 2225 c-138 -49 -179 -181 -88 -279 15 -15 77 -53 137 -82 168
-83 203 -138 132 -209 -60 -60 -190 -55 -290 11 -22 14 -40 24 -42 22 -2 -2 3
-31 12 -65 l15 -62 52 -13 c83 -21 202 -16 263 11 136 60 185 201 101 288 -19
19 -83 59 -145 90 -157 77 -194 126 -139 189 20 24 32 28 88 32 63 4 80 0 171
-46 4 -2 7 22 5 54 -3 52 -5 59 -28 65 -45 13 -203 9 -244 -6z"/>
<path d="M5661 2224 c-164 -44 -259 -155 -269 -315 -10 -175 69 -291 239 -350
78 -27 224 -31 342 -10 l77 14 0 168 0 169 -75 0 c-41 0 -75 -3 -75 -7 0 -3 8
-15 18 -26 13 -15 18 -42 20 -128 l4 -108 -29 -8 c-15 -4 -64 -8 -109 -8 -70
0 -88 4 -139 30 -219 112 -200 444 29 506 64 17 184 8 234 -19 23 -12 45 -22
47 -22 3 0 4 26 2 57 -2 55 -3 58 -32 64 -56 12 -229 8 -284 -7z"/>
<path d="M7216 2229 c3 -5 12 -9 21 -9 19 0 9 13 -12 16 -8 1 -13 -2 -9 -7z"/>
<path d="M1850 2226 c0 -4 7 -18 16 -31 14 -21 16 -63 15 -312 -2 -279 -3
-288 -23 -310 l-21 -23 96 0 c58 0 97 4 97 10 0 6 -4 10 -10 10 -22 0 -30 87
-30 326 l0 252 23 6 c122 33 219 -71 158 -170 -20 -33 -92 -74 -129 -74 -12 0
-22 -5 -22 -11 0 -34 216 -311 261 -334 20 -11 51 -15 96 -13 l67 3 -59 45
c-32 25 -100 97 -151 160 l-92 115 46 25 c25 14 59 42 76 63 27 33 31 47 31
97 0 70 -20 103 -86 140 -41 23 -56 25 -201 28 -87 2 -158 1 -158 -2z"/>
<path d="M2460 2220 c0 -5 4 -10 9 -10 24 0 31 -75 31 -324 0 -237 -2 -265
-19 -299 l-19 -37 95 0 94 0 -20 26 c-20 26 -21 38 -21 314 0 276 1 288 21
314 l20 26 -95 0 c-57 0 -96 -4 -96 -10z"/>
<path d="M2800 2225 c0 -3 8 -18 18 -32 15 -24 17 -59 20 -284 3 -249 -4 -339
-28 -339 -6 0 -10 -4 -10 -10 0 -6 39 -10 97 -10 l96 0 -21 23 c-22 23 -22 29
-22 314 0 279 1 291 21 317 l20 26 -95 0 c-53 0 -96 -2 -96 -5z"/>
<path d="M3120 2220 c0 -5 5 -10 10 -10 6 0 10 -13 10 -29 0 -22 -24 -63 -90
-150 -49 -67 -90 -125 -90 -129 0 -5 54 -81 119 -170 134 -180 143 -186 254
-180 l57 3 -47 35 c-26 20 -97 100 -160 183 l-114 147 116 150 c63 82 115 152
115 155 0 3 -40 5 -90 5 -53 0 -90 -4 -90 -10z"/>
<path d="M4010 2225 c0 -3 9 -14 20 -25 20 -20 21 -30 18 -314 -3 -278 -4
-295 -23 -316 l-20 -22 180 4 c156 4 187 7 236 26 146 58 232 200 214 355 -18
162 -127 263 -306 287 -77 10 -319 14 -319 5z m369 -101 c109 -46 165 -186
126 -320 -32 -112 -131 -174 -276 -174 l-69 0 0 254 0 255 28 4 c45 8 152 -3
191 -19z"/>
<path d="M4900 2225 c0 -4 7 -13 15 -21 17 -18 26 9 -104 -319 -83 -210 -113
-276 -139 -302 l-33 -33 98 0 c84 1 95 3 81 14 -25 19 -22 52 13 150 l32 87
129 -3 130 -3 34 -90 c39 -103 41 -123 17 -141 -15 -11 -2 -13 91 -14 l109 0
-33 34 c-21 21 -49 71 -73 132 -22 55 -77 191 -123 304 l-83 205 -80 3 c-45 2
-81 0 -81 -3z m133 -225 l45 -115 -90 -3 c-50 -1 -93 -1 -95 2 -4 4 70 205 84
229 7 13 9 10 56 -113z"/>
</g>
</svg>
